<?xml version="1.0" standalone="no"?>
<!DOCTYPE svg PUBLIC "-//W3C//DTD SVG 20010904//EN"
 "http://www.w3.org/TR/2001/REC-SVG-20010904/DTD/svg10.dtd">
<svg version="1.0" xmlns="http://www.w3.org/2000/svg"
 width="300.000000pt" height="298.000000pt" viewBox="0 0 300.000000 298.000000"
 preserveAspectRatio="xMidYMid meet">

<g transform="translate(0.000000,298.000000) scale(0.100000,-0.100000)"
fill="#000000" stroke="none">
<path d="M1472 2763 c-162 -754 -214 -992 -222 -1010 -5 -13 -15 -23 -22 -23
-41 1 -1117 -235 -1101 -242 10 -4 265 -59 568 -123 302 -64 551 -118 553
-119 2 -3 166 -749 223 -1019 12 -59 26 -102 30 -95 3 7 59 258 124 558 64
300 120 548 124 552 4 4 252 60 551 123 558 119 584 125 578 130 -2 2 -185 42
-408 89 -624 132 -721 153 -724 157 -2 2 -55 249 -120 549 -64 300 -120 553
-124 563 -5 12 -15 -19 -30 -90z"/>
</g>
</svg>
